<?xml version="1.0" standalone="no"?>
<!DOCTYPE svg PUBLIC "-//W3C//DTD SVG 20010904//EN"
 "http://www.w3.org/TR/2001/REC-SVG-20010904/DTD/svg10.dtd">
<svg version="1.0" xmlns="http://www.w3.org/2000/svg"
 width="764.000000pt" height="224.000000pt" viewBox="0 0 764.000000 224.000000"
 preserveAspectRatio="xMidYMid meet">
<metadata>
Created by potrace 1.16, written by Peter Selinger 2001-2019
</metadata>
<g transform="translate(0.000000,224.000000) scale(0.100000,-0.100000)"
fill="#000000" stroke="none">
<path d="M217 2084 c-4 -4 -7 -407 -7 -896 l0 -888 165 0 165 0 0 83 0 83 105
139 c58 77 110 140 116 140 6 0 36 -45 67 -100 30 -55 85 -154 122 -220 l67
-120 182 -5 c101 -3 185 -2 187 2 3 4 -67 132 -154 285 -238 416 -252 441
-252 453 0 5 90 123 200 260 110 138 200 255 200 261 0 5 -74 9 -180 9 l-180
0 -137 -174 c-76 -95 -183 -231 -238 -301 l-100 -127 -5 558 -5 559 -156 3
c-85 1 -158 -1 -162 -4z"/>
<path d="M1965 1616 c-220 -43 -377 -159 -471 -351 -99 -202 -100 -441 -2
-645 33 -68 57 -101 122 -165 128 -127 252 -177 446 -178 105 0 122 2 198 31
78 29 204 104 232 137 22 27 38 16 96 -65 57 -79 58 -80 101 -80 l43 0 -2 632
-3 633 -40 3 c-39 3 -43 0 -94 -63 -29 -36 -57 -68 -63 -71 -5 -3 -35 14 -66
38 -161 125 -334 175 -497 144z m230 -350 c28 -13 71 -45 97 -71 168 -170 127
-444 -84 -561 -48 -26 -62 -29 -143 -29 -77 1 -97 5 -140 27 -121 64 -184 191
-172 348 11 149 83 252 204 296 64 22 180 18 238 -10z"/>
<path d="M6695 1616 c-220 -43 -377 -159 -471 -351 -99 -202 -100 -441 -2
-645 33 -68 57 -101 122 -165 86 -86 147 -122 265 -157 92 -28 265 -30 341 -4
85 29 170 73 233 122 31 24 61 44 66 44 6 0 36 -36 67 -80 57 -79 58 -80 101
-80 l43 0 -2 632 -3 633 -40 3 c-39 3 -42 0 -98 -68 -32 -38 -62 -70 -67 -70
-4 0 -30 18 -56 40 -146 122 -336 177 -499 146z m230 -350 c69 -32 132 -99
168 -176 27 -55 31 -76 31 -145 0 -69 -5 -89 -32 -146 -34 -72 -93 -133 -164
-171 -36 -19 -57 -23 -133 -23 -77 1 -97 5 -140 27 -121 64 -184 191 -172 348
11 149 83 252 204 296 64 22 180 18 238 -10z"/>
<path d="M3455 1595 c-5 -2 -42 -13 -82 -24 -42 -12 -100 -40 -139 -66 -37
-25 -70 -45 -73 -45 -4 0 -30 27 -59 60 -41 47 -59 60 -81 60 -16 0 -34 -6
-40 -14 -8 -9 -10 -185 -9 -637 l3 -624 162 -3 162 -2 3 397 c3 388 4 399 25
439 48 90 142 141 241 131 95 -8 165 -57 202 -140 18 -39 20 -69 20 -434 l0
-393 166 0 165 0 -3 423 -3 422 -26 66 c-79 204 -228 336 -427 378 -48 10
-183 14 -207 6z"/>
<path d="M4728 1585 c-60 -15 -123 -44 -170 -76 -37 -27 -46 -24 -91 27 -35
40 -44 45 -76 42 l-36 -3 -3 -637 -2 -638 165 0 165 0 0 426 c0 416 1 427 21
464 31 54 88 84 151 78 55 -6 92 -28 126 -78 22 -33 22 -34 22 -461 l0 -429
165 0 164 0 3 434 c3 423 4 435 24 463 75 100 201 98 271 -6 l23 -34 0 -428 0
-429 165 0 165 0 0 433 c0 477 -2 497 -62 609 -94 176 -307 283 -500 250 -86
-15 -161 -49 -212 -97 -21 -19 -41 -35 -45 -35 -4 0 -20 14 -37 31 -16 17 -42
39 -59 49 -84 51 -235 71 -337 45z"/>
</g>
</svg>
