<svg width="27" height="23" viewBox="0 0 27 23" fill="none" xmlns="http://www.w3.org/2000/svg">
<path d="M24.5 0.75H2.5C2.03587 0.75 1.59075 0.934375 1.26256 1.26256C0.934375 1.59075 0.75 2.03587 0.75 2.5V20.5C0.75 20.9641 0.934375 21.4092 1.26256 21.7374C1.59075 22.0656 2.03587 22.25 2.5 22.25H24.5C24.9641 22.25 25.4092 22.0656 25.7374 21.7374C26.0656 21.4092 26.25 20.9641 26.25 20.5V2.5C26.25 2.03587 26.0656 1.59075 25.7374 1.26256C25.4092 0.934375 24.9641 0.75 24.5 0.75ZM2.5 2.25H24.5C24.5663 2.25 24.6299 2.27634 24.6768 2.32322C24.7237 2.37011 24.75 2.4337 24.75 2.5V15.9463L21.0662 12.2625C20.9037 12.1 20.7108 11.9711 20.4985 11.8831C20.2862 11.7951 20.0586 11.7499 19.8288 11.7499C19.5989 11.7499 19.3713 11.7951 19.159 11.8831C18.9467 11.9711 18.7538 12.1 18.5912 12.2625L15.9137 14.94L10.2375 9.2625C10.075 9.09998 9.88207 8.97106 9.66974 8.8831C9.45741 8.79515 9.22983 8.74987 9 8.74987C8.77017 8.74987 8.54259 8.79515 8.33026 8.8831C8.11793 8.97106 7.925 9.09998 7.7625 9.2625L2.25 14.775V2.5C2.25 2.4337 2.27634 2.37011 2.32322 2.32322C2.37011 2.27634 2.4337 2.25 2.5 2.25ZM2.25 20.5V16.8962L8.8225 10.3237C8.84574 10.3003 8.87339 10.2817 8.90386 10.269C8.93432 10.2563 8.967 10.2498 9 10.2498C9.033 10.2498 9.06568 10.2563 9.09614 10.269C9.12661 10.2817 9.15426 10.3003 9.1775 10.3237L19.6038 20.75H2.5C2.4337 20.75 2.37011 20.7237 2.32322 20.6768C2.27634 20.6299 2.25 20.5663 2.25 20.5ZM24.5 20.75H21.725L16.975 16L19.6513 13.3225C19.6745 13.2993 19.702 13.2808 19.7324 13.2682C19.7627 13.2557 19.7953 13.2492 19.8281 13.2492C19.861 13.2492 19.8935 13.2557 19.9239 13.2682C19.9542 13.2808 19.9818 13.2993 20.005 13.3225L24.755 18.0725V20.5C24.755 20.5333 24.7484 20.5662 24.7355 20.5968C24.7226 20.6275 24.7038 20.6553 24.68 20.6786C24.6563 20.7018 24.6281 20.7202 24.5972 20.7324C24.5663 20.7447 24.5332 20.7507 24.5 20.75ZM15.75 8C15.75 7.75277 15.8233 7.5111 15.9607 7.30554C16.098 7.09998 16.2932 6.93976 16.5216 6.84515C16.7501 6.75054 17.0014 6.72579 17.2439 6.77402C17.4863 6.82225 17.7091 6.9413 17.8839 7.11612C18.0587 7.29093 18.1777 7.51366 18.226 7.75614C18.2742 7.99861 18.2495 8.24995 18.1549 8.47835C18.0602 8.70676 17.9 8.90199 17.6945 9.03934C17.4889 9.17669 17.2472 9.25 17 9.25C16.6685 9.25 16.3505 9.1183 16.1161 8.88388C15.8817 8.64946 15.75 8.33152 15.75 8Z" fill="currentColor"/>
</svg>
